<svg width="33" height="33" viewBox="0 0 33 33" fill="none" xmlns="http://www.w3.org/2000/svg">
<path d="M27.5 16.5V24.875C27.5 26.7606 27.5 27.7034 26.9142 28.2892C26.3284 28.875 25.3856 28.875 23.5 28.875H8.9375C8.53117 28.875 8.32801 28.875 8.15714 28.8553C6.77186 28.696 5.67902 27.6031 5.51966 26.2179C5.5 26.047 5.5 25.8438 5.5 25.4375V25.4375C5.5 25.0312 5.5 24.828 5.51966 24.6571C5.67902 23.2719 6.77186 22.179 8.15714 22.0197C8.32801 22 8.53117 22 8.9375 22H23.5C25.3856 22 26.3284 22 26.9142 21.4142C27.5 20.8284 27.5 19.8856 27.5 18V8.125C27.5 6.23938 27.5 5.29657 26.9142 4.71079C26.3284 4.125 25.3856 4.125 23.5 4.125H9.5C7.61438 4.125 6.67157 4.125 6.08579 4.71079C5.5 5.29657 5.5 6.23938 5.5 8.125V25.4375" stroke="#FDFDFD" stroke-width="2"/>
<path d="M12.375 13.75L14.4179 15.7929C14.8084 16.1834 15.4416 16.1834 15.8321 15.7929L20.625 11" stroke="#FDFDFD" stroke-width="2" stroke-linecap="round"/>
</svg>
