<svg width="32" height="32" viewBox="0 0 32 32" fill="none" xmlns="http://www.w3.org/2000/svg">
<path d="M7.67963 5.65371L8.62623 4.70711C9.01675 4.31658 9.64992 4.31658 10.0404 4.70711L13.9596 8.62623C14.3501 9.01675 14.3501 9.64992 13.9596 10.0404L12.3623 11.6377C12.1459 11.8541 12.0923 12.1846 12.2292 12.4583C13.8114 15.6227 16.3773 18.1886 19.5417 19.7708C19.8154 19.9077 20.146 19.8541 20.3623 19.6377L21.9596 18.0404C22.3501 17.6499 22.9832 17.6499 23.3738 18.0404L27.2929 21.9596C27.6834 22.3501 27.6834 22.9832 27.2929 23.3738L26.3463 24.3204C24.2349 26.4317 20.8924 26.6693 18.5037 24.8777L14.6286 21.9714C12.885 20.6638 11.3362 19.115 10.0286 17.3714L7.12226 13.4964C5.33072 11.1076 5.56827 7.76506 7.67963 5.65371Z" stroke="#FDFDFD" stroke-width="2"/>
</svg>
